<mxfile host="app.diagrams.net" modified="2023-11-23T14:13:26.069Z" agent="Mozilla/5.0 (Windows NT 10.0; Win64; x64) AppleWebKit/537.36 (KHTML, like Gecko) Chrome/119.0.0.0 Safari/537.36" etag="71q42uaqCrh0vVrEQjpQ" version="22.1.3" type="device">
  <diagram name="Page-1" id="2YBvvXClWsGukQMizWep">
    <mxGraphModel dx="1278" dy="664" grid="1" gridSize="10" guides="1" tooltips="1" connect="1" arrows="1" fold="1" page="1" pageScale="1" pageWidth="850" pageHeight="1100" math="0" shadow="0">
      <root>
        <mxCell id="0" />
        <mxCell id="1" parent="0" />
        <mxCell id="aM9ryv3xv72pqoxQDRHE-1" value="&lt;u&gt;Bilo koja stranica portala&lt;/u&gt;" style="shape=umlLifeline;perimeter=lifelinePerimeter;whiteSpace=wrap;html=1;container=0;dropTarget=0;collapsible=0;recursiveResize=0;outlineConnect=0;portConstraint=eastwest;newEdgeStyle={&quot;edgeStyle&quot;:&quot;elbowEdgeStyle&quot;,&quot;elbow&quot;:&quot;vertical&quot;,&quot;curved&quot;:0,&quot;rounded&quot;:0};strokeColor=#0000CC;movable=1;resizable=1;rotatable=1;deletable=1;editable=1;locked=0;connectable=1;" parent="1" vertex="1">
          <mxGeometry x="130" y="40" width="160" height="680" as="geometry" />
        </mxCell>
        <mxCell id="aM9ryv3xv72pqoxQDRHE-2" value="" style="html=1;points=[];perimeter=orthogonalPerimeter;outlineConnect=0;targetShapes=umlLifeline;portConstraint=eastwest;newEdgeStyle={&quot;edgeStyle&quot;:&quot;elbowEdgeStyle&quot;,&quot;elbow&quot;:&quot;vertical&quot;,&quot;curved&quot;:0,&quot;rounded&quot;:0};movable=1;resizable=1;rotatable=1;deletable=1;editable=1;locked=0;connectable=1;" parent="aM9ryv3xv72pqoxQDRHE-1" vertex="1">
          <mxGeometry x="76.25" y="90" width="10" height="20" as="geometry" />
        </mxCell>
        <mxCell id="KoEqaKrBhK-L-DgtVDV6-16" value="" style="html=1;points=[];perimeter=orthogonalPerimeter;outlineConnect=0;targetShapes=umlLifeline;portConstraint=eastwest;newEdgeStyle={&quot;edgeStyle&quot;:&quot;elbowEdgeStyle&quot;,&quot;elbow&quot;:&quot;vertical&quot;,&quot;curved&quot;:0,&quot;rounded&quot;:0};" vertex="1" parent="aM9ryv3xv72pqoxQDRHE-1">
          <mxGeometry x="76.25" y="120" width="10" height="30" as="geometry" />
        </mxCell>
        <mxCell id="KoEqaKrBhK-L-DgtVDV6-23" value="&amp;lt;prikaÅ¾i&amp;gt;" style="html=1;verticalAlign=bottom;endArrow=block;edgeStyle=elbowEdgeStyle;elbow=vertical;curved=0;rounded=0;" edge="1" parent="aM9ryv3xv72pqoxQDRHE-1" target="KoEqaKrBhK-L-DgtVDV6-21">
          <mxGeometry x="-0.1396" relative="1" as="geometry">
            <mxPoint x="86.25" y="120" as="sourcePoint" />
            <Array as="points">
              <mxPoint x="186.25" y="120.30000000000001" />
            </Array>
            <mxPoint x="230.75" y="120.30000000000001" as="targetPoint" />
            <mxPoint as="offset" />
          </mxGeometry>
        </mxCell>
        <mxCell id="KoEqaKrBhK-L-DgtVDV6-60" value="" style="html=1;points=[];perimeter=orthogonalPerimeter;outlineConnect=0;targetShapes=umlLifeline;portConstraint=eastwest;newEdgeStyle={&quot;edgeStyle&quot;:&quot;elbowEdgeStyle&quot;,&quot;elbow&quot;:&quot;vertical&quot;,&quot;curved&quot;:0,&quot;rounded&quot;:0};" vertex="1" parent="aM9ryv3xv72pqoxQDRHE-1">
          <mxGeometry x="75" y="550" width="10" height="20" as="geometry" />
        </mxCell>
        <mxCell id="KoEqaKrBhK-L-DgtVDV6-61" value="" style="html=1;points=[];perimeter=orthogonalPerimeter;outlineConnect=0;targetShapes=umlLifeline;portConstraint=eastwest;newEdgeStyle={&quot;edgeStyle&quot;:&quot;elbowEdgeStyle&quot;,&quot;elbow&quot;:&quot;vertical&quot;,&quot;curved&quot;:0,&quot;rounded&quot;:0};movable=1;resizable=1;rotatable=1;deletable=1;editable=1;locked=0;connectable=1;" vertex="1" parent="aM9ryv3xv72pqoxQDRHE-1">
          <mxGeometry x="76.25" y="600" width="10" height="40" as="geometry" />
        </mxCell>
        <mxCell id="KoEqaKrBhK-L-DgtVDV6-62" value="" style="endArrow=classic;html=1;rounded=0;" edge="1" parent="aM9ryv3xv72pqoxQDRHE-1" source="KoEqaKrBhK-L-DgtVDV6-61" target="KoEqaKrBhK-L-DgtVDV6-61">
          <mxGeometry width="50" height="50" relative="1" as="geometry">
            <mxPoint x="21.25" y="640" as="sourcePoint" />
            <mxPoint x="71.25" y="590" as="targetPoint" />
            <Array as="points">
              <mxPoint x="161.25" y="620" />
            </Array>
          </mxGeometry>
        </mxCell>
        <mxCell id="KoEqaKrBhK-L-DgtVDV6-63" value="&amp;lt;refresh&amp;gt;" style="text;html=1;strokeColor=none;fillColor=none;align=center;verticalAlign=middle;whiteSpace=wrap;rounded=0;" vertex="1" parent="aM9ryv3xv72pqoxQDRHE-1">
          <mxGeometry x="91.25" y="590" width="90" height="20" as="geometry" />
        </mxCell>
        <mxCell id="KoEqaKrBhK-L-DgtVDV6-1" value="Prijavljeni korisnik" style="shape=umlActor;verticalLabelPosition=bottom;verticalAlign=top;html=1;outlineConnect=0;fontStyle=4;strokeColor=#0000CC;" vertex="1" parent="1">
          <mxGeometry x="60" y="20" width="30" height="60" as="geometry" />
        </mxCell>
        <mxCell id="KoEqaKrBhK-L-DgtVDV6-6" value="" style="endArrow=none;dashed=1;html=1;rounded=0;" edge="1" parent="1" source="KoEqaKrBhK-L-DgtVDV6-7">
          <mxGeometry width="50" height="50" relative="1" as="geometry">
            <mxPoint x="75" y="180" as="sourcePoint" />
            <mxPoint x="74.7" y="100" as="targetPoint" />
          </mxGeometry>
        </mxCell>
        <mxCell id="KoEqaKrBhK-L-DgtVDV6-8" value="" style="endArrow=none;dashed=1;html=1;rounded=0;" edge="1" parent="1" source="KoEqaKrBhK-L-DgtVDV6-24">
          <mxGeometry width="50" height="50" relative="1" as="geometry">
            <mxPoint x="74.7" y="400" as="sourcePoint" />
            <mxPoint x="74.7" y="180" as="targetPoint" />
          </mxGeometry>
        </mxCell>
        <mxCell id="KoEqaKrBhK-L-DgtVDV6-9" value="" style="endArrow=none;dashed=1;html=1;rounded=0;" edge="1" parent="1" target="KoEqaKrBhK-L-DgtVDV6-7">
          <mxGeometry width="50" height="50" relative="1" as="geometry">
            <mxPoint x="75" y="180" as="sourcePoint" />
            <mxPoint x="74.7" y="100" as="targetPoint" />
          </mxGeometry>
        </mxCell>
        <mxCell id="KoEqaKrBhK-L-DgtVDV6-7" value="" style="html=1;points=[];perimeter=orthogonalPerimeter;outlineConnect=0;targetShapes=umlLifeline;portConstraint=eastwest;newEdgeStyle={&quot;edgeStyle&quot;:&quot;elbowEdgeStyle&quot;,&quot;elbow&quot;:&quot;vertical&quot;,&quot;curved&quot;:0,&quot;rounded&quot;:0};" vertex="1" parent="1">
          <mxGeometry x="70" y="130" width="10" height="30" as="geometry" />
        </mxCell>
        <mxCell id="KoEqaKrBhK-L-DgtVDV6-12" value="&lt;u&gt;Skript za logovanje&lt;/u&gt;" style="shape=umlLifeline;perimeter=lifelinePerimeter;whiteSpace=wrap;html=1;container=0;dropTarget=0;collapsible=0;recursiveResize=0;outlineConnect=0;portConstraint=eastwest;newEdgeStyle={&quot;edgeStyle&quot;:&quot;elbowEdgeStyle&quot;,&quot;elbow&quot;:&quot;vertical&quot;,&quot;curved&quot;:0,&quot;rounded&quot;:0};strokeColor=#0000CC;" vertex="1" parent="1">
          <mxGeometry x="470" y="40" width="100" height="680" as="geometry" />
        </mxCell>
        <mxCell id="KoEqaKrBhK-L-DgtVDV6-13" value="" style="html=1;points=[];perimeter=orthogonalPerimeter;outlineConnect=0;targetShapes=umlLifeline;portConstraint=eastwest;newEdgeStyle={&quot;edgeStyle&quot;:&quot;elbowEdgeStyle&quot;,&quot;elbow&quot;:&quot;vertical&quot;,&quot;curved&quot;:0,&quot;rounded&quot;:0};" vertex="1" parent="KoEqaKrBhK-L-DgtVDV6-12">
          <mxGeometry x="45" y="80" width="10" height="170" as="geometry" />
        </mxCell>
        <mxCell id="KoEqaKrBhK-L-DgtVDV6-41" value="" style="html=1;points=[];perimeter=orthogonalPerimeter;outlineConnect=0;targetShapes=umlLifeline;portConstraint=eastwest;newEdgeStyle={&quot;edgeStyle&quot;:&quot;elbowEdgeStyle&quot;,&quot;elbow&quot;:&quot;vertical&quot;,&quot;curved&quot;:0,&quot;rounded&quot;:0};" vertex="1" parent="KoEqaKrBhK-L-DgtVDV6-12">
          <mxGeometry x="45" y="340" width="10" height="20" as="geometry" />
        </mxCell>
        <mxCell id="KoEqaKrBhK-L-DgtVDV6-44" value="" style="html=1;points=[];perimeter=orthogonalPerimeter;outlineConnect=0;targetShapes=umlLifeline;portConstraint=eastwest;newEdgeStyle={&quot;edgeStyle&quot;:&quot;elbowEdgeStyle&quot;,&quot;elbow&quot;:&quot;vertical&quot;,&quot;curved&quot;:0,&quot;rounded&quot;:0};movable=1;resizable=1;rotatable=1;deletable=1;editable=1;locked=0;connectable=1;" vertex="1" parent="KoEqaKrBhK-L-DgtVDV6-12">
          <mxGeometry x="45" y="380.74" width="10" height="30" as="geometry" />
        </mxCell>
        <mxCell id="KoEqaKrBhK-L-DgtVDV6-45" value="query(...)" style="html=1;verticalAlign=bottom;endArrow=block;edgeStyle=elbowEdgeStyle;elbow=vertical;curved=0;rounded=0;" edge="1" parent="KoEqaKrBhK-L-DgtVDV6-12" target="KoEqaKrBhK-L-DgtVDV6-46">
          <mxGeometry x="-0.1422" relative="1" as="geometry">
            <mxPoint x="49.99736842105244" y="380.00105263157894" as="sourcePoint" />
            <Array as="points" />
            <mxPoint x="180" y="381" as="targetPoint" />
            <mxPoint as="offset" />
          </mxGeometry>
        </mxCell>
        <mxCell id="KoEqaKrBhK-L-DgtVDV6-50" value="" style="html=1;points=[];perimeter=orthogonalPerimeter;outlineConnect=0;targetShapes=umlLifeline;portConstraint=eastwest;newEdgeStyle={&quot;edgeStyle&quot;:&quot;elbowEdgeStyle&quot;,&quot;elbow&quot;:&quot;vertical&quot;,&quot;curved&quot;:0,&quot;rounded&quot;:0};movable=1;resizable=1;rotatable=1;deletable=1;editable=1;locked=0;connectable=1;" vertex="1" parent="KoEqaKrBhK-L-DgtVDV6-12">
          <mxGeometry x="45" y="430" width="10" height="40" as="geometry" />
        </mxCell>
        <mxCell id="KoEqaKrBhK-L-DgtVDV6-51" value="" style="endArrow=classic;html=1;rounded=0;" edge="1" parent="KoEqaKrBhK-L-DgtVDV6-12" source="KoEqaKrBhK-L-DgtVDV6-50" target="KoEqaKrBhK-L-DgtVDV6-50">
          <mxGeometry width="50" height="50" relative="1" as="geometry">
            <mxPoint x="-10" y="470" as="sourcePoint" />
            <mxPoint x="40" y="420" as="targetPoint" />
            <Array as="points">
              <mxPoint x="130" y="450" />
            </Array>
          </mxGeometry>
        </mxCell>
        <mxCell id="KoEqaKrBhK-L-DgtVDV6-53" value="" style="html=1;points=[];perimeter=orthogonalPerimeter;outlineConnect=0;targetShapes=umlLifeline;portConstraint=eastwest;newEdgeStyle={&quot;edgeStyle&quot;:&quot;elbowEdgeStyle&quot;,&quot;elbow&quot;:&quot;vertical&quot;,&quot;curved&quot;:0,&quot;rounded&quot;:0};movable=1;resizable=1;rotatable=1;deletable=1;editable=1;locked=0;connectable=1;" vertex="1" parent="KoEqaKrBhK-L-DgtVDV6-12">
          <mxGeometry x="45" y="500" width="10" height="40" as="geometry" />
        </mxCell>
        <mxCell id="KoEqaKrBhK-L-DgtVDV6-25" value="" style="endArrow=none;dashed=1;html=1;rounded=0;" edge="1" parent="1" target="KoEqaKrBhK-L-DgtVDV6-24">
          <mxGeometry width="50" height="50" relative="1" as="geometry">
            <mxPoint x="75" y="720" as="sourcePoint" />
            <mxPoint x="74.7" y="180" as="targetPoint" />
          </mxGeometry>
        </mxCell>
        <mxCell id="KoEqaKrBhK-L-DgtVDV6-24" value="" style="html=1;points=[];perimeter=orthogonalPerimeter;outlineConnect=0;targetShapes=umlLifeline;portConstraint=eastwest;newEdgeStyle={&quot;edgeStyle&quot;:&quot;elbowEdgeStyle&quot;,&quot;elbow&quot;:&quot;vertical&quot;,&quot;curved&quot;:0,&quot;rounded&quot;:0};" vertex="1" parent="1">
          <mxGeometry x="70" y="220" width="10" height="30" as="geometry" />
        </mxCell>
        <mxCell id="KoEqaKrBhK-L-DgtVDV6-27" value="unos korisniÄkog imena" style="html=1;verticalAlign=bottom;endArrow=block;edgeStyle=elbowEdgeStyle;elbow=vertical;curved=0;rounded=0;" edge="1" parent="1" target="aM9ryv3xv72pqoxQDRHE-5">
          <mxGeometry x="-0.1396" relative="1" as="geometry">
            <mxPoint x="80" y="220" as="sourcePoint" />
            <Array as="points">
              <mxPoint x="180" y="220.3" />
            </Array>
            <mxPoint x="339.5" y="220.3" as="targetPoint" />
            <mxPoint as="offset" />
          </mxGeometry>
        </mxCell>
        <mxCell id="KoEqaKrBhK-L-DgtVDV6-29" value="" style="html=1;points=[];perimeter=orthogonalPerimeter;outlineConnect=0;targetShapes=umlLifeline;portConstraint=eastwest;newEdgeStyle={&quot;edgeStyle&quot;:&quot;elbowEdgeStyle&quot;,&quot;elbow&quot;:&quot;vertical&quot;,&quot;curved&quot;:0,&quot;rounded&quot;:0};" vertex="1" parent="1">
          <mxGeometry x="70" y="270.87" width="10" height="30" as="geometry" />
        </mxCell>
        <mxCell id="KoEqaKrBhK-L-DgtVDV6-32" value="" style="html=1;points=[];perimeter=orthogonalPerimeter;outlineConnect=0;targetShapes=umlLifeline;portConstraint=eastwest;newEdgeStyle={&quot;edgeStyle&quot;:&quot;elbowEdgeStyle&quot;,&quot;elbow&quot;:&quot;vertical&quot;,&quot;curved&quot;:0,&quot;rounded&quot;:0};" vertex="1" parent="1">
          <mxGeometry x="70" y="320" width="10" height="30" as="geometry" />
        </mxCell>
        <mxCell id="KoEqaKrBhK-L-DgtVDV6-33" value="submit()" style="html=1;verticalAlign=bottom;endArrow=block;edgeStyle=elbowEdgeStyle;elbow=vertical;curved=0;rounded=0;" edge="1" parent="1" source="KoEqaKrBhK-L-DgtVDV6-32" target="aM9ryv3xv72pqoxQDRHE-5">
          <mxGeometry x="-0.1396" relative="1" as="geometry">
            <mxPoint x="27.5" y="320" as="sourcePoint" />
            <Array as="points">
              <mxPoint x="80.5" y="320" />
            </Array>
            <mxPoint x="287" y="320.3" as="targetPoint" />
            <mxPoint as="offset" />
          </mxGeometry>
        </mxCell>
        <mxCell id="KoEqaKrBhK-L-DgtVDV6-38" value="" style="html=1;verticalAlign=bottom;endArrow=block;edgeStyle=elbowEdgeStyle;elbow=vertical;curved=0;rounded=0;" edge="1" parent="1" target="aM9ryv3xv72pqoxQDRHE-2">
          <mxGeometry x="-0.0446" relative="1" as="geometry">
            <mxPoint x="80" y="130" as="sourcePoint" />
            <Array as="points" />
            <mxPoint x="210" y="130" as="targetPoint" />
            <mxPoint as="offset" />
          </mxGeometry>
        </mxCell>
        <mxCell id="KoEqaKrBhK-L-DgtVDV6-36" value="" style="html=1;points=[];perimeter=orthogonalPerimeter;outlineConnect=0;targetShapes=umlLifeline;portConstraint=eastwest;newEdgeStyle={&quot;edgeStyle&quot;:&quot;elbowEdgeStyle&quot;,&quot;elbow&quot;:&quot;vertical&quot;,&quot;curved&quot;:0,&quot;rounded&quot;:0};" vertex="1" parent="1">
          <mxGeometry x="370" y="360" height="20" as="geometry" />
        </mxCell>
        <mxCell id="KoEqaKrBhK-L-DgtVDV6-37" value="login (email, password)" style="html=1;verticalAlign=bottom;endArrow=block;edgeStyle=elbowEdgeStyle;elbow=vertical;curved=0;rounded=0;" edge="1" parent="1" target="KoEqaKrBhK-L-DgtVDV6-41">
          <mxGeometry x="-0.1422" relative="1" as="geometry">
            <mxPoint x="369.9973684210525" y="379.26105263157893" as="sourcePoint" />
            <Array as="points" />
            <mxPoint x="533.75" y="379.14" as="targetPoint" />
            <mxPoint as="offset" />
          </mxGeometry>
        </mxCell>
        <mxCell id="KoEqaKrBhK-L-DgtVDV6-40" value="prijavljivanje" style="text;html=1;strokeColor=none;fillColor=none;align=center;verticalAlign=middle;whiteSpace=wrap;rounded=0;" vertex="1" parent="1">
          <mxGeometry x="110" y="110" width="60" height="20" as="geometry" />
        </mxCell>
        <mxCell id="KoEqaKrBhK-L-DgtVDV6-42" value="Baza podataka" style="shape=umlActor;verticalLabelPosition=bottom;verticalAlign=top;html=1;outlineConnect=0;fontStyle=4;strokeColor=#0000CC;" vertex="1" parent="1">
          <mxGeometry x="650" y="20" width="30" height="60" as="geometry" />
        </mxCell>
        <mxCell id="KoEqaKrBhK-L-DgtVDV6-43" value="" style="endArrow=none;dashed=1;html=1;rounded=0;" edge="1" parent="1">
          <mxGeometry width="50" height="50" relative="1" as="geometry">
            <mxPoint x="664.6" y="420.74" as="sourcePoint" />
            <mxPoint x="664.6" y="99.37" as="targetPoint" />
          </mxGeometry>
        </mxCell>
        <mxCell id="KoEqaKrBhK-L-DgtVDV6-49" value="" style="endArrow=none;dashed=1;html=1;rounded=0;" edge="1" parent="1">
          <mxGeometry width="50" height="50" relative="1" as="geometry">
            <mxPoint x="665" y="720" as="sourcePoint" />
            <mxPoint x="664.6" y="440.74" as="targetPoint" />
          </mxGeometry>
        </mxCell>
        <mxCell id="KoEqaKrBhK-L-DgtVDV6-46" value="" style="html=1;points=[];perimeter=orthogonalPerimeter;outlineConnect=0;targetShapes=umlLifeline;portConstraint=eastwest;newEdgeStyle={&quot;edgeStyle&quot;:&quot;elbowEdgeStyle&quot;,&quot;elbow&quot;:&quot;vertical&quot;,&quot;curved&quot;:0,&quot;rounded&quot;:0};" vertex="1" parent="1">
          <mxGeometry x="660" y="420.74" width="10" height="20" as="geometry" />
        </mxCell>
        <mxCell id="KoEqaKrBhK-L-DgtVDV6-52" value="generateSID()" style="text;html=1;strokeColor=none;fillColor=none;align=center;verticalAlign=middle;whiteSpace=wrap;rounded=0;" vertex="1" parent="1">
          <mxGeometry x="530" y="460" width="90" height="20" as="geometry" />
        </mxCell>
        <mxCell id="KoEqaKrBhK-L-DgtVDV6-55" value="" style="endArrow=classic;html=1;rounded=0;" edge="1" parent="1" target="KoEqaKrBhK-L-DgtVDV6-54">
          <mxGeometry width="50" height="50" relative="1" as="geometry">
            <mxPoint x="519.9999999999998" y="540" as="sourcePoint" />
            <mxPoint x="380.0000000000002" y="540" as="targetPoint" />
          </mxGeometry>
        </mxCell>
        <mxCell id="aM9ryv3xv72pqoxQDRHE-5" value="&lt;u&gt;Forma za prijavljivanje&lt;/u&gt;" style="shape=umlLifeline;perimeter=lifelinePerimeter;whiteSpace=wrap;html=1;container=0;dropTarget=0;collapsible=0;recursiveResize=0;outlineConnect=0;portConstraint=eastwest;newEdgeStyle={&quot;edgeStyle&quot;:&quot;elbowEdgeStyle&quot;,&quot;elbow&quot;:&quot;vertical&quot;,&quot;curved&quot;:0,&quot;rounded&quot;:0};movable=1;resizable=1;rotatable=1;deletable=1;editable=1;locked=0;connectable=1;strokeColor=#0000CC;" parent="1" vertex="1">
          <mxGeometry x="320" y="40" width="100" height="680" as="geometry" />
        </mxCell>
        <mxCell id="KoEqaKrBhK-L-DgtVDV6-26" value="" style="html=1;points=[];perimeter=orthogonalPerimeter;outlineConnect=0;targetShapes=umlLifeline;portConstraint=eastwest;newEdgeStyle={&quot;edgeStyle&quot;:&quot;elbowEdgeStyle&quot;,&quot;elbow&quot;:&quot;vertical&quot;,&quot;curved&quot;:0,&quot;rounded&quot;:0};" vertex="1" parent="aM9ryv3xv72pqoxQDRHE-5">
          <mxGeometry x="45" y="180" width="10" height="20" as="geometry" />
        </mxCell>
        <mxCell id="KoEqaKrBhK-L-DgtVDV6-28" value="" style="html=1;points=[];perimeter=orthogonalPerimeter;outlineConnect=0;targetShapes=umlLifeline;portConstraint=eastwest;newEdgeStyle={&quot;edgeStyle&quot;:&quot;elbowEdgeStyle&quot;,&quot;elbow&quot;:&quot;vertical&quot;,&quot;curved&quot;:0,&quot;rounded&quot;:0};" vertex="1" parent="aM9ryv3xv72pqoxQDRHE-5">
          <mxGeometry x="45" y="230.87" width="10" height="20" as="geometry" />
        </mxCell>
        <mxCell id="KoEqaKrBhK-L-DgtVDV6-30" value="unos lozinke" style="html=1;verticalAlign=bottom;endArrow=block;edgeStyle=elbowEdgeStyle;elbow=vertical;curved=0;rounded=0;movable=1;resizable=1;rotatable=1;deletable=1;editable=1;locked=0;connectable=1;" edge="1" parent="aM9ryv3xv72pqoxQDRHE-5">
          <mxGeometry x="-0.1396" relative="1" as="geometry">
            <mxPoint x="-245" y="230" as="sourcePoint" />
            <Array as="points">
              <mxPoint x="-110" y="230.3" />
            </Array>
            <mxPoint x="49.5" y="230.3" as="targetPoint" />
            <mxPoint as="offset" />
          </mxGeometry>
        </mxCell>
        <mxCell id="KoEqaKrBhK-L-DgtVDV6-31" value="" style="html=1;points=[];perimeter=orthogonalPerimeter;outlineConnect=0;targetShapes=umlLifeline;portConstraint=eastwest;newEdgeStyle={&quot;edgeStyle&quot;:&quot;elbowEdgeStyle&quot;,&quot;elbow&quot;:&quot;vertical&quot;,&quot;curved&quot;:0,&quot;rounded&quot;:0};" vertex="1" parent="aM9ryv3xv72pqoxQDRHE-5">
          <mxGeometry x="45" y="280" width="10" height="20" as="geometry" />
        </mxCell>
        <mxCell id="KoEqaKrBhK-L-DgtVDV6-35" value="" style="html=1;points=[];perimeter=orthogonalPerimeter;outlineConnect=0;targetShapes=umlLifeline;portConstraint=eastwest;newEdgeStyle={&quot;edgeStyle&quot;:&quot;elbowEdgeStyle&quot;,&quot;elbow&quot;:&quot;vertical&quot;,&quot;curved&quot;:0,&quot;rounded&quot;:0};movable=1;resizable=1;rotatable=1;deletable=1;editable=1;locked=0;connectable=1;" vertex="1" parent="aM9ryv3xv72pqoxQDRHE-5">
          <mxGeometry x="45" y="340" width="10" height="30" as="geometry" />
        </mxCell>
        <mxCell id="KoEqaKrBhK-L-DgtVDV6-54" value="" style="html=1;points=[];perimeter=orthogonalPerimeter;outlineConnect=0;targetShapes=umlLifeline;portConstraint=eastwest;newEdgeStyle={&quot;edgeStyle&quot;:&quot;elbowEdgeStyle&quot;,&quot;elbow&quot;:&quot;vertical&quot;,&quot;curved&quot;:0,&quot;rounded&quot;:0};" vertex="1" parent="aM9ryv3xv72pqoxQDRHE-5">
          <mxGeometry x="45" y="500" width="10" height="20" as="geometry" />
        </mxCell>
        <mxCell id="KoEqaKrBhK-L-DgtVDV6-21" value="" style="html=1;points=[];perimeter=orthogonalPerimeter;outlineConnect=0;targetShapes=umlLifeline;portConstraint=eastwest;newEdgeStyle={&quot;edgeStyle&quot;:&quot;elbowEdgeStyle&quot;,&quot;elbow&quot;:&quot;vertical&quot;,&quot;curved&quot;:0,&quot;rounded&quot;:0};" vertex="1" parent="aM9ryv3xv72pqoxQDRHE-5">
          <mxGeometry x="45" y="120" width="10" height="20" as="geometry" />
        </mxCell>
        <mxCell id="KoEqaKrBhK-L-DgtVDV6-57" value="" style="html=1;points=[];perimeter=orthogonalPerimeter;outlineConnect=0;targetShapes=umlLifeline;portConstraint=eastwest;newEdgeStyle={&quot;edgeStyle&quot;:&quot;elbowEdgeStyle&quot;,&quot;elbow&quot;:&quot;vertical&quot;,&quot;curved&quot;:0,&quot;rounded&quot;:0};movable=1;resizable=1;rotatable=1;deletable=1;editable=1;locked=0;connectable=1;" vertex="1" parent="aM9ryv3xv72pqoxQDRHE-5">
          <mxGeometry x="45" y="550" width="10" height="40" as="geometry" />
        </mxCell>
        <mxCell id="KoEqaKrBhK-L-DgtVDV6-58" value="" style="endArrow=classic;html=1;rounded=0;" edge="1" parent="aM9ryv3xv72pqoxQDRHE-5" target="KoEqaKrBhK-L-DgtVDV6-60">
          <mxGeometry width="50" height="50" relative="1" as="geometry">
            <mxPoint x="49.99999999999977" y="550" as="sourcePoint" />
            <mxPoint x="-95" y="550" as="targetPoint" />
          </mxGeometry>
        </mxCell>
        <mxCell id="KoEqaKrBhK-L-DgtVDV6-59" value="SID" style="text;html=1;strokeColor=none;fillColor=none;align=center;verticalAlign=middle;whiteSpace=wrap;rounded=0;" vertex="1" parent="aM9ryv3xv72pqoxQDRHE-5">
          <mxGeometry x="-45" y="530" width="60" height="20" as="geometry" />
        </mxCell>
        <mxCell id="KoEqaKrBhK-L-DgtVDV6-56" value="SID" style="text;html=1;strokeColor=none;fillColor=none;align=center;verticalAlign=middle;whiteSpace=wrap;rounded=0;" vertex="1" parent="1">
          <mxGeometry x="425" y="520" width="60" height="20" as="geometry" />
        </mxCell>
      </root>
    </mxGraphModel>
  </diagram>
</mxfile>
